<mxfile host="app.diagrams.net" agent="Mozilla/5.0 (Windows NT 10.0; Win64; x64) AppleWebKit/537.36 (KHTML, like Gecko) Chrome/134.0.0.0 Safari/537.36" version="25.0.1">
  <diagram name="Page-1" id="1M39MlWB7WoV_DEF96Gu">
    <mxGraphModel dx="844" dy="457" grid="1" gridSize="10" guides="1" tooltips="1" connect="1" arrows="1" fold="1" page="1" pageScale="1" pageWidth="850" pageHeight="1100" math="0" shadow="0">
      <root>
        <mxCell id="0" />
        <mxCell id="1" parent="0" />
        <mxCell id="ThkMqLpaY8hJxv52PhQc-3" value="" style="edgeStyle=orthogonalEdgeStyle;rounded=0;orthogonalLoop=1;jettySize=auto;html=1;" edge="1" parent="1" source="ThkMqLpaY8hJxv52PhQc-1" target="ThkMqLpaY8hJxv52PhQc-2">
          <mxGeometry relative="1" as="geometry" />
        </mxCell>
        <mxCell id="ThkMqLpaY8hJxv52PhQc-1" value="Server starts" style="rounded=1;whiteSpace=wrap;html=1;" vertex="1" parent="1">
          <mxGeometry x="365" y="60" width="120" height="60" as="geometry" />
        </mxCell>
        <mxCell id="ThkMqLpaY8hJxv52PhQc-7" value="" style="edgeStyle=orthogonalEdgeStyle;rounded=0;orthogonalLoop=1;jettySize=auto;html=1;" edge="1" parent="1" source="ThkMqLpaY8hJxv52PhQc-2" target="ThkMqLpaY8hJxv52PhQc-6">
          <mxGeometry relative="1" as="geometry" />
        </mxCell>
        <mxCell id="ThkMqLpaY8hJxv52PhQc-9" value="" style="edgeStyle=orthogonalEdgeStyle;rounded=0;orthogonalLoop=1;jettySize=auto;html=1;" edge="1" parent="1" source="ThkMqLpaY8hJxv52PhQc-2" target="ThkMqLpaY8hJxv52PhQc-8">
          <mxGeometry relative="1" as="geometry" />
        </mxCell>
        <mxCell id="ThkMqLpaY8hJxv52PhQc-2" value="Client connects" style="rounded=1;whiteSpace=wrap;html=1;" vertex="1" parent="1">
          <mxGeometry x="365" y="150" width="120" height="60" as="geometry" />
        </mxCell>
        <mxCell id="ThkMqLpaY8hJxv52PhQc-13" value="" style="edgeStyle=orthogonalEdgeStyle;rounded=0;orthogonalLoop=1;jettySize=auto;html=1;" edge="1" parent="1" source="ThkMqLpaY8hJxv52PhQc-6" target="ThkMqLpaY8hJxv52PhQc-12">
          <mxGeometry relative="1" as="geometry" />
        </mxCell>
        <mxCell id="ThkMqLpaY8hJxv52PhQc-6" value="Server accepts connection" style="whiteSpace=wrap;html=1;rounded=1;" vertex="1" parent="1">
          <mxGeometry x="365" y="240" width="120" height="60" as="geometry" />
        </mxCell>
        <mxCell id="ThkMqLpaY8hJxv52PhQc-11" value="" style="edgeStyle=orthogonalEdgeStyle;rounded=0;orthogonalLoop=1;jettySize=auto;html=1;" edge="1" parent="1" source="ThkMqLpaY8hJxv52PhQc-8" target="ThkMqLpaY8hJxv52PhQc-10">
          <mxGeometry relative="1" as="geometry" />
        </mxCell>
        <mxCell id="ThkMqLpaY8hJxv52PhQc-8" value="Server refuses connection" style="rounded=1;whiteSpace=wrap;html=1;" vertex="1" parent="1">
          <mxGeometry x="565" y="150" width="120" height="60" as="geometry" />
        </mxCell>
        <mxCell id="ThkMqLpaY8hJxv52PhQc-10" value="Client terminates" style="whiteSpace=wrap;html=1;rounded=1;" vertex="1" parent="1">
          <mxGeometry x="565" y="240" width="120" height="60" as="geometry" />
        </mxCell>
        <mxCell id="ThkMqLpaY8hJxv52PhQc-15" value="" style="edgeStyle=orthogonalEdgeStyle;rounded=0;orthogonalLoop=1;jettySize=auto;html=1;" edge="1" parent="1" source="ThkMqLpaY8hJxv52PhQc-12" target="ThkMqLpaY8hJxv52PhQc-14">
          <mxGeometry relative="1" as="geometry" />
        </mxCell>
        <mxCell id="ThkMqLpaY8hJxv52PhQc-12" value="Client requests for game to start" style="whiteSpace=wrap;html=1;rounded=1;" vertex="1" parent="1">
          <mxGeometry x="365" y="330" width="120" height="60" as="geometry" />
        </mxCell>
        <mxCell id="ThkMqLpaY8hJxv52PhQc-17" value="" style="edgeStyle=orthogonalEdgeStyle;rounded=0;orthogonalLoop=1;jettySize=auto;html=1;" edge="1" parent="1" source="ThkMqLpaY8hJxv52PhQc-14" target="ThkMqLpaY8hJxv52PhQc-16">
          <mxGeometry relative="1" as="geometry">
            <Array as="points">
              <mxPoint x="330" y="440" />
              <mxPoint x="330" y="100" />
            </Array>
          </mxGeometry>
        </mxCell>
        <mxCell id="ThkMqLpaY8hJxv52PhQc-14" value="Server accepts, informs all clients that game is starting, sends positional and movement values to client along with information about other connected players" style="whiteSpace=wrap;html=1;rounded=1;" vertex="1" parent="1">
          <mxGeometry x="328" y="410" width="195" height="110" as="geometry" />
        </mxCell>
        <mxCell id="ThkMqLpaY8hJxv52PhQc-20" value="" style="edgeStyle=orthogonalEdgeStyle;rounded=0;orthogonalLoop=1;jettySize=auto;html=1;" edge="1" parent="1" source="ThkMqLpaY8hJxv52PhQc-16" target="ThkMqLpaY8hJxv52PhQc-19">
          <mxGeometry relative="1" as="geometry" />
        </mxCell>
        <mxCell id="ThkMqLpaY8hJxv52PhQc-16" value="Client sends current movement vector along with rotation information to server" style="whiteSpace=wrap;html=1;rounded=1;" vertex="1" parent="1">
          <mxGeometry x="130" y="70" width="120" height="60" as="geometry" />
        </mxCell>
        <mxCell id="ThkMqLpaY8hJxv52PhQc-22" value="" style="edgeStyle=orthogonalEdgeStyle;rounded=0;orthogonalLoop=1;jettySize=auto;html=1;" edge="1" parent="1" source="ThkMqLpaY8hJxv52PhQc-19" target="ThkMqLpaY8hJxv52PhQc-21">
          <mxGeometry relative="1" as="geometry" />
        </mxCell>
        <mxCell id="ThkMqLpaY8hJxv52PhQc-19" value="If client fired bullet, send bullet starting position and movement vector to server" style="whiteSpace=wrap;html=1;rounded=1;" vertex="1" parent="1">
          <mxGeometry x="125" y="150" width="130" height="60" as="geometry" />
        </mxCell>
        <mxCell id="ThkMqLpaY8hJxv52PhQc-23" style="edgeStyle=orthogonalEdgeStyle;rounded=0;orthogonalLoop=1;jettySize=auto;html=1;exitX=1;exitY=0.5;exitDx=0;exitDy=0;" edge="1" parent="1" source="ThkMqLpaY8hJxv52PhQc-21">
          <mxGeometry relative="1" as="geometry">
            <mxPoint x="330" y="280" as="targetPoint" />
          </mxGeometry>
        </mxCell>
        <mxCell id="ThkMqLpaY8hJxv52PhQc-25" value="" style="edgeStyle=orthogonalEdgeStyle;rounded=0;orthogonalLoop=1;jettySize=auto;html=1;" edge="1" parent="1" source="ThkMqLpaY8hJxv52PhQc-21" target="ThkMqLpaY8hJxv52PhQc-24">
          <mxGeometry relative="1" as="geometry" />
        </mxCell>
        <mxCell id="ThkMqLpaY8hJxv52PhQc-21" value="Server acks new bullet creation if any, checks for game end, and updates position of all entities(players, bullets, asteroids) and sends the positional data to all clients." style="whiteSpace=wrap;html=1;rounded=1;" vertex="1" parent="1">
          <mxGeometry x="110" y="230" width="160" height="100" as="geometry" />
        </mxCell>
        <mxCell id="ThkMqLpaY8hJxv52PhQc-27" style="edgeStyle=orthogonalEdgeStyle;rounded=0;orthogonalLoop=1;jettySize=auto;html=1;exitX=0.5;exitY=1;exitDx=0;exitDy=0;entryX=1;entryY=0.5;entryDx=0;entryDy=0;" edge="1" parent="1" source="ThkMqLpaY8hJxv52PhQc-24" target="ThkMqLpaY8hJxv52PhQc-12">
          <mxGeometry relative="1" as="geometry">
            <Array as="points">
              <mxPoint x="190" y="580" />
              <mxPoint x="570" y="580" />
              <mxPoint x="570" y="360" />
            </Array>
          </mxGeometry>
        </mxCell>
        <mxCell id="ThkMqLpaY8hJxv52PhQc-24" value="Server informs all clients to end game and sends leaderboard data + current game&#39;s winner to all clients" style="whiteSpace=wrap;html=1;rounded=1;" vertex="1" parent="1">
          <mxGeometry x="110" y="410" width="160" height="100" as="geometry" />
        </mxCell>
        <mxCell id="ThkMqLpaY8hJxv52PhQc-26" value="If game ends" style="text;html=1;align=center;verticalAlign=middle;whiteSpace=wrap;rounded=0;" vertex="1" parent="1">
          <mxGeometry x="195" y="360" width="60" height="30" as="geometry" />
        </mxCell>
        <mxCell id="ThkMqLpaY8hJxv52PhQc-28" value="If client requests for game to restart," style="text;html=1;align=center;verticalAlign=middle;whiteSpace=wrap;rounded=0;" vertex="1" parent="1">
          <mxGeometry x="328" y="590" width="112" height="60" as="geometry" />
        </mxCell>
      </root>
    </mxGraphModel>
  </diagram>
</mxfile>
